<svg xmlns="http://www.w3.org/2000/svg" xmlns:xlink="http://www.w3.org/1999/xlink" width="500" zoomAndPan="magnify" viewBox="0 0 375 374.999991" height="500" preserveAspectRatio="xMidYMid meet" version="1.0"><defs><clipPath id="5f121c4ad8"><path d="M 79.804688 81.367188 L 124.917969 81.367188 L 124.917969 127.984375 L 79.804688 127.984375 Z M 79.804688 81.367188 " clip-rule="nonzero"/></clipPath><clipPath id="4ed11ea168"><path d="M 0.804688 0.367188 L 45.917969 0.367188 L 45.917969 46.984375 L 0.804688 46.984375 Z M 0.804688 0.367188 " clip-rule="nonzero"/></clipPath><clipPath id="dc0c049e2e"><rect x="0" width="46" y="0" height="47"/></clipPath><clipPath id="c7a151a8cd"><path d="M 301.148438 81.367188 L 346.261719 81.367188 L 346.261719 229.484375 L 301.148438 229.484375 Z M 301.148438 81.367188 " clip-rule="nonzero"/></clipPath><clipPath id="6665e9df0c"><path d="M 0.148438 0.367188 L 45.261719 0.367188 L 45.261719 148.484375 L 0.148438 148.484375 Z M 0.148438 0.367188 " clip-rule="nonzero"/></clipPath><clipPath id="0159c267e1"><rect x="0" width="46" y="0" height="149"/></clipPath><clipPath id="0ded1e2cc2"><path d="M 182 54 L 330 54 L 330 202 L 182 202 Z M 182 54 " clip-rule="nonzero"/></clipPath><clipPath id="feaf250998"><path d="M 299.582031 54.480469 L 329.757812 84.65625 L 212.925781 201.484375 L 182.753906 171.3125 Z M 299.582031 54.480469 " clip-rule="nonzero"/></clipPath><clipPath id="5c97d0255a"><path d="M 0.558594 0.28125 L 147.921875 0.28125 L 147.921875 147.640625 L 0.558594 147.640625 Z M 0.558594 0.28125 " clip-rule="nonzero"/></clipPath><clipPath id="1ab323e9cf"><path d="M 117.582031 0.480469 L 147.757812 30.65625 L 30.925781 147.484375 L 0.753906 117.3125 Z M 117.582031 0.480469 " clip-rule="nonzero"/></clipPath><clipPath id="3065c26cf5"><rect x="0" width="148" y="0" height="148"/></clipPath><clipPath id="39bdca2549"><path d="M 102 58 L 246 58 L 246 202 L 102 202 Z M 102 58 " clip-rule="nonzero"/></clipPath><clipPath id="e27803e11d"><path d="M 102.367188 90.707031 L 134.265625 58.808594 L 245.042969 169.582031 L 213.144531 201.484375 Z M 102.367188 90.707031 " clip-rule="nonzero"/></clipPath><clipPath id="9d93f240a8"><path d="M 0.160156 0.601562 L 143.199219 0.601562 L 143.199219 143.640625 L 0.160156 143.640625 Z M 0.160156 0.601562 " clip-rule="nonzero"/></clipPath><clipPath id="dc679e4a07"><path d="M 0.367188 32.707031 L 32.265625 0.808594 L 143.042969 111.582031 L 111.144531 143.484375 Z M 0.367188 32.707031 " clip-rule="nonzero"/></clipPath><clipPath id="fe37b5dbef"><rect x="0" width="144" y="0" height="144"/></clipPath><clipPath id="30305da5a7"><path d="M 79.800781 0.574219 L 135.140625 0.574219 L 135.140625 118.601562 L 79.800781 118.601562 Z M 79.800781 0.574219 " clip-rule="nonzero"/></clipPath><clipPath id="b2f0fc5a30"><path d="M 135.140625 59.53125 L 79.800781 118.492188 L 79.800781 0.574219 Z M 135.140625 59.53125 " clip-rule="nonzero"/></clipPath><clipPath id="3ae8f4b3f6"><path d="M 0.800781 0.574219 L 56.140625 0.574219 L 56.140625 118.601562 L 0.800781 118.601562 Z M 0.800781 0.574219 " clip-rule="nonzero"/></clipPath><clipPath id="ad005abb1d"><path d="M 56.140625 59.53125 L 0.800781 118.492188 L 0.800781 0.574219 Z M 56.140625 59.53125 " clip-rule="nonzero"/></clipPath><clipPath id="1c52e0d6e5"><rect x="0" width="57" y="0" height="119"/></clipPath><clipPath id="9910e9646d"><path d="M 290.925781 3.585938 L 346.265625 3.585938 L 346.265625 121.617188 L 290.925781 121.617188 Z M 290.925781 3.585938 " clip-rule="nonzero"/></clipPath><clipPath id="ae21f2d946"><path d="M 290.925781 62.65625 L 346.265625 3.695312 L 346.265625 121.617188 Z M 290.925781 62.65625 " clip-rule="nonzero"/></clipPath><clipPath id="004be674fd"><path d="M 0.925781 0.640625 L 56.265625 0.640625 L 56.265625 118.617188 L 0.925781 118.617188 Z M 0.925781 0.640625 " clip-rule="nonzero"/></clipPath><clipPath id="e9446b599c"><path d="M 0.925781 59.65625 L 56.265625 0.695312 L 56.265625 118.617188 Z M 0.925781 59.65625 " clip-rule="nonzero"/></clipPath><clipPath id="e7f55e51e2"><rect x="0" width="57" y="0" height="119"/></clipPath><clipPath id="5fff245911"><path d="M 79.796875 83.546875 L 124.910156 83.546875 L 124.910156 172.363281 L 79.796875 172.363281 Z M 79.796875 83.546875 " clip-rule="nonzero"/></clipPath><clipPath id="d6aed8fa98"><path d="M 79.796875 127.976562 L 124.910156 83.585938 L 124.910156 172.363281 Z M 79.796875 127.976562 " clip-rule="nonzero"/></clipPath><clipPath id="d93fb37a47"><path d="M 0.796875 0.558594 L 45.910156 0.558594 L 45.910156 89.363281 L 0.796875 89.363281 Z M 0.796875 0.558594 " clip-rule="nonzero"/></clipPath><clipPath id="191d21c8ea"><path d="M 0.796875 44.976562 L 45.910156 0.585938 L 45.910156 89.363281 Z M 0.796875 44.976562 " clip-rule="nonzero"/></clipPath><clipPath id="c54c5df1da"><rect x="0" width="46" y="0" height="90"/></clipPath><clipPath id="04b4b7414a"><path d="M 0.738281 181.496094 L 45.152344 181.496094 L 45.152344 304.425781 L 0.738281 304.425781 Z M 0.738281 181.496094 " clip-rule="nonzero"/></clipPath><clipPath id="38bae4c84a"><path d="M 0.738281 0.496094 L 45.152344 0.496094 L 45.152344 123.425781 L 0.738281 123.425781 Z M 0.738281 0.496094 " clip-rule="nonzero"/></clipPath><clipPath id="61326a1f05"><rect x="0" width="46" y="0" height="124"/></clipPath><clipPath id="7692aef053"><path d="M 0.730469 72.71875 L 51.628906 72.71875 L 51.628906 188.238281 L 0.730469 188.238281 Z M 0.730469 72.71875 " clip-rule="nonzero"/></clipPath><clipPath id="50ca472157"><path d="M 51.628906 130.445312 L 0.730469 188.171875 L 0.730469 72.71875 Z M 51.628906 130.445312 " clip-rule="nonzero"/></clipPath><clipPath id="2ed8987f34"><path d="M 0.730469 0.71875 L 51.628906 0.71875 L 51.628906 116.199219 L 0.730469 116.199219 Z M 0.730469 0.71875 " clip-rule="nonzero"/></clipPath><clipPath id="343ec70fd1"><path d="M 51.628906 58.445312 L 0.730469 116.171875 L 0.730469 0.71875 Z M 51.628906 58.445312 " clip-rule="nonzero"/></clipPath><clipPath id="e0d65eabfd"><rect x="0" width="52" y="0" height="117"/></clipPath><clipPath id="7f0a93e79c"><path d="M 7 120 L 169 120 L 169 281 L 7 281 Z M 7 120 " clip-rule="nonzero"/></clipPath><clipPath id="a5402cebc0"><path d="M 7.871094 154.867188 L 42.488281 120.25 L 168.316406 246.078125 L 133.699219 280.699219 Z M 7.871094 154.867188 " clip-rule="nonzero"/></clipPath><clipPath id="7c5e3ab895"><path d="M 0.839844 0.0390625 L 161.398438 0.0390625 L 161.398438 160.839844 L 0.839844 160.839844 Z M 0.839844 0.0390625 " clip-rule="nonzero"/></clipPath><clipPath id="f728c0284e"><path d="M 0.871094 34.867188 L 35.488281 0.25 L 161.316406 126.078125 L 126.699219 160.699219 Z M 0.871094 34.867188 " clip-rule="nonzero"/></clipPath><clipPath id="15cfddfc86"><rect x="0" width="162" y="0" height="161"/></clipPath><clipPath id="f7a101d4a5"><path d="M 6.164062 148.691406 L 39.726562 148.691406 L 39.726562 188.273438 L 6.164062 188.273438 Z M 6.164062 148.691406 " clip-rule="nonzero"/></clipPath><clipPath id="8816dd90a5"><path d="M 0.164062 0.691406 L 33.726562 0.691406 L 33.726562 40.273438 L 0.164062 40.273438 Z M 0.164062 0.691406 " clip-rule="nonzero"/></clipPath><clipPath id="e94e2e9c16"><rect x="0" width="34" y="0" height="41"/></clipPath><clipPath id="f14135bab7"><path d="M 224.660156 220.621094 L 268.871094 220.621094 L 268.871094 304.425781 L 224.660156 304.425781 Z M 224.660156 220.621094 " clip-rule="nonzero"/></clipPath><clipPath id="2f5ca0f326"><path d="M 0.660156 0.621094 L 44.871094 0.621094 L 44.871094 84.425781 L 0.660156 84.425781 Z M 0.660156 0.621094 " clip-rule="nonzero"/></clipPath><clipPath id="03b429ce5f"><rect x="0" width="45" y="0" height="85"/></clipPath><clipPath id="c5b5a32857"><path d="M 224.65625 181.429688 L 268.867188 181.429688 L 268.867188 259.835938 L 224.65625 259.835938 Z M 224.65625 181.429688 " clip-rule="nonzero"/></clipPath><clipPath id="fcaf56a005"><path d="M 224.65625 220.664062 L 268.867188 181.492188 L 268.867188 259.835938 Z M 224.65625 220.664062 " clip-rule="nonzero"/></clipPath><clipPath id="96bd49c115"><path d="M 0.65625 0.480469 L 44.867188 0.480469 L 44.867188 78.835938 L 0.65625 78.835938 Z M 0.65625 0.480469 " clip-rule="nonzero"/></clipPath><clipPath id="6254db1430"><path d="M 0.65625 39.664062 L 44.867188 0.492188 L 44.867188 78.835938 Z M 0.65625 39.664062 " clip-rule="nonzero"/></clipPath><clipPath id="7cd0c46874"><rect x="0" width="45" y="0" height="79"/></clipPath><clipPath id="64a6c15146"><path d="M 104 188 L 196 188 L 196 281 L 104 281 Z M 104 188 " clip-rule="nonzero"/></clipPath><clipPath id="18f8aac009"><path d="M 165.761719 188.566406 L 195.933594 218.738281 L 134.230469 280.445312 L 104.054688 250.273438 Z M 165.761719 188.566406 " clip-rule="nonzero"/></clipPath><clipPath id="19142fc157"><path d="M 0 0.441406 L 92 0.441406 L 92 92.601562 L 0 92.601562 Z M 0 0.441406 " clip-rule="nonzero"/></clipPath><clipPath id="9aacca3501"><path d="M 61.761719 0.566406 L 91.933594 30.738281 L 30.230469 92.445312 L 0.0546875 62.273438 Z M 61.761719 0.566406 " clip-rule="nonzero"/></clipPath><clipPath id="d0f54eebc8"><rect x="0" width="92" y="0" height="93"/></clipPath><clipPath id="85577d2b9c"><rect x="0" width="347" y="0" height="305"/></clipPath></defs><g transform="matrix(1, 0, 0, 1, 14, 35)"><g clip-path="url(#85577d2b9c)"><g clip-path="url(#5f121c4ad8)"><g transform="matrix(1, 0, 0, 1, 79, 81)"><g clip-path="url(#dc0c049e2e)"><g clip-path="url(#4ed11ea168)"><path fill="#e2b02c" d="M 0.804688 0.367188 L 45.917969 0.367188 L 45.917969 47.066406 L 0.804688 47.066406 Z M 0.804688 0.367188 " fill-opacity="1" fill-rule="nonzero"/></g></g></g></g><g clip-path="url(#c7a151a8cd)"><g transform="matrix(1, 0, 0, 1, 301, 81)"><g clip-path="url(#0159c267e1)"><g clip-path="url(#6665e9df0c)"><path fill="#e2b02c" d="M 0.148438 0.367188 L 45.261719 0.367188 L 45.261719 148.570312 L 0.148438 148.570312 Z M 0.148438 0.367188 " fill-opacity="1" fill-rule="nonzero"/></g></g></g></g><g clip-path="url(#0ded1e2cc2)"><g clip-path="url(#feaf250998)"><g transform="matrix(1, 0, 0, 1, 182, 54)"><g clip-path="url(#3065c26cf5)"><g clip-path="url(#5c97d0255a)"><g clip-path="url(#1ab323e9cf)"><path fill="#e2b02c" d="M 117.582031 0.480469 L 147.757812 30.65625 L 30.953125 147.457031 L 0.78125 117.285156 Z M 117.582031 0.480469 " fill-opacity="1" fill-rule="nonzero"/></g></g></g></g></g></g><g clip-path="url(#39bdca2549)"><g clip-path="url(#e27803e11d)"><g transform="matrix(1, 0, 0, 1, 102, 58)"><g clip-path="url(#fe37b5dbef)"><g clip-path="url(#9d93f240a8)"><g clip-path="url(#dc679e4a07)"><path fill="#e2b02c" d="M 0.367188 32.707031 L 32.265625 0.808594 L 143.042969 111.582031 L 111.144531 143.484375 Z M 0.367188 32.707031 " fill-opacity="1" fill-rule="nonzero"/></g></g></g></g></g></g><g clip-path="url(#30305da5a7)"><g clip-path="url(#b2f0fc5a30)"><g transform="matrix(1, 0, 0, 1, 79, 0)"><g clip-path="url(#1c52e0d6e5)"><g clip-path="url(#3ae8f4b3f6)"><g clip-path="url(#ad005abb1d)"><path fill="#e2b02c" d="M 56.140625 0.574219 L 56.140625 118.386719 L 0.800781 118.386719 L 0.800781 0.574219 Z M 56.140625 0.574219 " fill-opacity="1" fill-rule="nonzero"/></g></g></g></g></g></g><g clip-path="url(#9910e9646d)"><g clip-path="url(#ae21f2d946)"><g transform="matrix(1, 0, 0, 1, 290, 3)"><g clip-path="url(#e7f55e51e2)"><g clip-path="url(#004be674fd)"><g clip-path="url(#e9446b599c)"><path fill="#e2b02c" d="M 0.925781 118.617188 L 0.925781 0.800781 L 56.265625 0.800781 L 56.265625 118.617188 Z M 0.925781 118.617188 " fill-opacity="1" fill-rule="nonzero"/></g></g></g></g></g></g><g clip-path="url(#5fff245911)"><g clip-path="url(#d6aed8fa98)"><g transform="matrix(1, 0, 0, 1, 79, 83)"><g clip-path="url(#c54c5df1da)"><g clip-path="url(#d93fb37a47)"><g clip-path="url(#191d21c8ea)"><path fill="#e2b02c" d="M 0.796875 89.363281 L 0.796875 0.546875 L 45.910156 0.546875 L 45.910156 89.363281 Z M 0.796875 89.363281 " fill-opacity="1" fill-rule="nonzero"/></g></g></g></g></g></g><g clip-path="url(#04b4b7414a)"><g transform="matrix(1, 0, 0, 1, -0.000000000000001776, 181)"><g clip-path="url(#61326a1f05)"><g clip-path="url(#38bae4c84a)"><path fill="#8f8f91" d="M 0.738281 0.496094 L 45.152344 0.496094 L 45.152344 123.503906 L 0.738281 123.503906 Z M 0.738281 0.496094 " fill-opacity="1" fill-rule="nonzero"/></g></g></g></g><g clip-path="url(#7692aef053)"><g clip-path="url(#50ca472157)"><g transform="matrix(1, 0, 0, 1, -0.000000000000001776, 72)"><g clip-path="url(#e0d65eabfd)"><g clip-path="url(#2ed8987f34)"><g clip-path="url(#343ec70fd1)"><path fill="#8f8f91" d="M 51.628906 0.71875 L 51.628906 116.238281 L 0.730469 116.238281 L 0.730469 0.71875 Z M 51.628906 0.71875 " fill-opacity="1" fill-rule="nonzero"/></g></g></g></g></g></g><g clip-path="url(#7f0a93e79c)"><g clip-path="url(#a5402cebc0)"><g transform="matrix(1, 0, 0, 1, 7, 120)"><g clip-path="url(#15cfddfc86)"><g clip-path="url(#7c5e3ab895)"><g clip-path="url(#f728c0284e)"><path fill="#8f8f91" d="M 0.871094 34.867188 L 35.488281 0.25 L 161.386719 126.148438 L 126.765625 160.765625 Z M 0.871094 34.867188 " fill-opacity="1" fill-rule="nonzero"/></g></g></g></g></g></g><g clip-path="url(#f7a101d4a5)"><g transform="matrix(1, 0, 0, 1, 6, 148)"><g clip-path="url(#e94e2e9c16)"><g clip-path="url(#8816dd90a5)"><path fill="#8f8f91" d="M 0.164062 0.691406 L 33.726562 0.691406 L 33.726562 40.285156 L 0.164062 40.285156 Z M 0.164062 0.691406 " fill-opacity="1" fill-rule="nonzero"/></g></g></g></g><g clip-path="url(#f14135bab7)"><g transform="matrix(1, 0, 0, 1, 224, 220)"><g clip-path="url(#03b429ce5f)"><g clip-path="url(#2f5ca0f326)"><path fill="#8f8f91" d="M 0.660156 0.621094 L 44.871094 0.621094 L 44.871094 84.378906 L 0.660156 84.378906 Z M 0.660156 0.621094 " fill-opacity="1" fill-rule="nonzero"/></g></g></g></g><g clip-path="url(#c5b5a32857)"><g clip-path="url(#fcaf56a005)"><g transform="matrix(1, 0, 0, 1, 224, 181)"><g clip-path="url(#7cd0c46874)"><g clip-path="url(#96bd49c115)"><g clip-path="url(#6254db1430)"><path fill="#8f8f91" d="M 0.65625 78.835938 L 0.65625 0.429688 L 44.867188 0.429688 L 44.867188 78.835938 Z M 0.65625 78.835938 " fill-opacity="1" fill-rule="nonzero"/></g></g></g></g></g></g><g clip-path="url(#64a6c15146)"><g clip-path="url(#18f8aac009)"><g transform="matrix(1, 0, 0, 1, 104, 188)"><g clip-path="url(#d0f54eebc8)"><g clip-path="url(#19142fc157)"><g clip-path="url(#9aacca3501)"><path fill="#8f8f91" d="M 61.761719 0.566406 L 91.933594 30.738281 L 30.175781 92.5 L 0 62.328125 Z M 61.761719 0.566406 " fill-opacity="1" fill-rule="nonzero"/></g></g></g></g></g></g></g></g></svg>